HIERARCHY
ROOT Hips
{
    OFFSET 0.000000 0.000000 0.000000
    CHANNELS 6 Xposition Yposition Zposition Zrotation Xrotation Yrotation
    JOINT Spine
    {
        OFFSET -0.000000 14.517291 0.000000
        CHANNELS 3 Zrotation Xrotation Yrotation
        JOINT Spine1
        {
            OFFSET -0.000000 37.558300 0.000000
            CHANNELS 3 Zrotation Xrotation Yrotation
            JOINT Neck
            {
                OFFSET -0.000000 37.404057 3.400369
                CHANNELS 3 Zrotation Xrotation Yrotation
                JOINT Head
                {
                    OFFSET -0.000000 24.785618 -3.540803
                    CHANNELS 3 Zrotation Xrotation Yrotation
                    End Site
                    {
                        OFFSET -0.000000 35.408028 0.000000
                    }
                }
            }
            JOINT LeftShoulder
            {
                OFFSET 6.992933 33.973492 -0.192664
                CHANNELS 3 Zrotation Xrotation Yrotation
                JOINT LeftArm
                {
                    OFFSET 21.527611 0.000000 0.000000
                    CHANNELS 3 Zrotation Xrotation Yrotation
                    JOINT LeftForeArm
                    {
                        OFFSET 56.353916 0.000000 0.000000
                        CHANNELS 3 Zrotation Xrotation Yrotation
                        JOINT LeftHand
                        {
                            OFFSET 47.774071 0.000000 0.000000
                            CHANNELS 3 Zrotation Xrotation Yrotation
                            End Site
                            {
                                OFFSET 26.556021 0.000000 0.000000
                            }
                        }
                    }
                }
            }
            JOINT RightShoulder
            {
                OFFSET -7.065357 33.973492 -0.192664
                CHANNELS 3 Zrotation Xrotation Yrotation
                JOINT RightArm
                {
                    OFFSET -21.527611 0.000000 0.000000
                    CHANNELS 3 Zrotation Xrotation Yrotation
                    JOINT RightForeArm
                    {
                        OFFSET -56.353916 0.000000 0.000000
                        CHANNELS 3 Zrotation Xrotation Yrotation
                        JOINT RightHand
                        {
                            OFFSET -47.774071 0.000000 0.000000
                            CHANNELS 3 Zrotation Xrotation Yrotation
                            End Site
                            {
                                OFFSET -26.556021 0.000000 0.000000
                            }
                        }
                    }
                }
            }
        }
    }
    JOINT LeftUpLeg
    {
        OFFSET 17.704014 0.000000 0.000000
        CHANNELS 3 Zrotation Xrotation Yrotation
        JOINT LeftLeg
        {
            OFFSET -0.000000 -81.181816 0.000000
            CHANNELS 3 Zrotation Xrotation Yrotation
            JOINT LeftFoot
            {
                OFFSET -0.000000 -62.821102 0.000000
                CHANNELS 3 Zrotation Xrotation Yrotation
                JOINT LeftToeBase
                {
                    OFFSET -0.000000 -11.507608 26.556021
                    CHANNELS 3 Zrotation Xrotation Yrotation
                    End Site
                    {
                        OFFSET -0.000000 0.000000 7.081605
                    }
                }
            }
        }
    }
    JOINT RightUpLeg
    {
        OFFSET -17.704014 0.000000 0.000000
        CHANNELS 3 Zrotation Xrotation Yrotation
        JOINT RightLeg
        {
            OFFSET -0.000000 -81.181816 0.000000
            CHANNELS 3 Zrotation Xrotation Yrotation
            JOINT RightFoot
            {
                OFFSET -0.000000 -62.821102 0.000000
                CHANNELS 3 Zrotation Xrotation Yrotation
                JOINT RightToeBase
                {
                    OFFSET -0.000000 -11.507608 26.556021
                    CHANNELS 3 Zrotation Xrotation Yrotation
                    End Site
                    {
                        OFFSET -0.000000 0.000000 7.081605
                    }
                }
            }
        }
    }
}
MOTION
Frames:    4
Frame Time:    0.008333
-34.606693    152.013641    -61.883881    -0.666296    -4.863485    -7.182419    0.573682    3.032439    10.521833    -0.506813    2.769722    3.525788    -0.933436    1.850495    -6.066581    8.834294    -1.329658    -4.832074    -1.373894    4.878776    -5.687948    -42.372528    19.040646    -37.294376    -2.804666    -23.898794    -132.377579    -2.442801    -29.494276    -4.583680    -3.616063    12.335609    3.632606    36.734554    11.101842    59.285172    -26.188622    -25.779148    55.622383    11.228936    -9.029401    34.492893    12.512567    -30.489622    -20.446640    -9.597068    17.021370    -17.492468    -13.766582    17.607573    40.088146    0.000000    0.000000    0.000000    6.605140    -2.158229    -8.294600    5.114430    39.691006    -2.083049    -10.321725    -29.899290    -13.247617    0.000000    0.000000    0.000000    
-34.458458    151.976639    -61.662968    -0.649802    -4.907999    -7.153632    0.539400    3.034071    10.508577    -0.461696    2.782585    3.520037    -0.937124    1.857888    -6.059248    8.829571    -1.322113    -4.825288    -1.408391    4.884498    -5.685707    -42.397240    19.073118    -37.303188    -2.820725    -23.857563    -132.391083    -2.484353    -29.486189    -4.628334    -3.638721    12.336213    3.630090    36.704433    11.116277    59.258949    -26.191710    -25.786940    55.608154    11.216261    -9.041177    34.523354    12.792278    -30.326586    -20.641249    -9.578985    16.852276    -17.353992    -13.788600    17.709072    40.201790    0.000000    0.000000    0.000000    6.533245    -2.073309    -8.348955    5.032576    39.772789    -1.990974    -10.261650    -30.002552    -13.266521    0.000000    0.000000    0.000000    
-34.311638    151.944595    -61.423397    -0.647929    -4.953499    -7.129698    0.541570    3.036565    10.493200    -0.448926    2.797493    3.514685    -0.993779    1.845669    -6.065923    8.907677    -1.262969    -4.817114    -1.442348    4.895831    -5.677725    -42.382206    19.133476    -37.309113    -2.794474    -23.910244    -132.396667    -2.579711    -29.481750    -4.621294    -3.664661    12.365439    3.611955    36.741005    11.055512    59.263725    -26.085808    -25.715553    55.670536    11.190952    -9.017016    34.469219    13.078837    -30.141447    -20.689993    -9.520978    16.701653    -17.269192    -13.899626    17.551830    40.258369    0.000000    0.000000    0.000000    6.466471    -1.994518    -8.407898    4.954309    39.905857    -1.893908    -10.144526    -30.103695    -13.272339    0.000000    0.000000    0.000000    
-34.167789    151.910400    -61.181683    -0.659531    -4.965355    -7.122649    0.555837    2.988051    10.491486    -0.444077    2.863047    3.514311    -0.992751    1.791610    -6.071957    8.942240    -1.200532    -4.822542    -1.434351    4.895581    -5.634323    -42.415192    19.101635    -37.352974    -2.826614    -23.767561    -132.413376    -2.539979    -29.413713    -4.589578    -3.655965    12.330050    3.597085    36.730019    11.053505    59.240868    -26.024107    -25.715212    55.704517    11.227185    -9.028872    34.477123    13.395258    -29.974619    -20.638199    -9.474385    16.563147    -17.196814    -13.729763    17.738148    40.153698    0.000000    0.000000    0.000000    6.440930    -1.925814    -8.486341    4.785395    40.007622    -1.804782    -9.994187    -30.226194    -13.175170    0.000000    0.000000    0.000000    
